# xmcd
#
# Track frame offsets: 
#        150
#        16860
#        31956
#        55139
#        77537
#        97710
#        114560
#        135019
#        148915
#        164151
#        177480
#        193598
#
# Disc length: 2867 seconds
#
# Revision: 0
# Processed by: cddbd v1.5.2PL0 Copyright (c) Steve Scherf et al.
# Submitted via: ExactAudioCopy v0.99pb5
#
DISCID=950b310c
DTITLE=The Statesboro Review - Different Kind of Light
DYEAR=2009
DGENRE=Blues
TTITLE0=Little Girl Like You
TTITLE1=The Other Side
TTITLE2=The Painter
TTITLE3=Shine On
TTITLE4=Find a Way
TTITLE5=Over You
TTITLE6=Comes Back to You
TTITLE7=Lady
TTITLE8=The Fall
TTITLE9=Different Kind of Light
TTITLE10=Brink of Heartache
TTITLE11=Alone
EXTD=
EXTT0=
EXTT1=
EXTT2=
EXTT3=
EXTT4=
EXTT5=
EXTT6=
EXTT7=
EXTT8=
EXTT9=
EXTT10=
EXTT11=
PLAYORDER=
